<mxfile host="Electron" modified="2023-05-04T15:17:35.001Z" agent="Mozilla/5.0 (Windows NT 10.0; Win64; x64) AppleWebKit/537.36 (KHTML, like Gecko) draw.io/21.2.1 Chrome/112.0.5615.87 Electron/24.1.2 Safari/537.36" etag="-rSma3qIB7x3cg4yoVH8" version="21.2.1" type="device">
  <diagram name="Página-1" id="2Syhkzbhjun2w0gJ5Eeh">
    <mxGraphModel dx="676" dy="1433" grid="1" gridSize="10" guides="1" tooltips="1" connect="1" arrows="1" fold="1" page="1" pageScale="1" pageWidth="1169" pageHeight="827" math="0" shadow="0">
      <root>
        <mxCell id="0" />
        <mxCell id="1" parent="0" />
        <mxCell id="hfysusJ_UThqVZN3HZuq-7" style="edgeStyle=orthogonalEdgeStyle;rounded=0;orthogonalLoop=1;jettySize=auto;html=1;" parent="1" source="Sl7VbawM-Kpv8AohSlt3-16" target="Sl7VbawM-Kpv8AohSlt3-20" edge="1">
          <mxGeometry relative="1" as="geometry">
            <Array as="points">
              <mxPoint x="1080" y="150" />
              <mxPoint x="1030" y="150" />
            </Array>
          </mxGeometry>
        </mxCell>
        <mxCell id="hfysusJ_UThqVZN3HZuq-1" value="HR" style="swimlane;fontStyle=1;align=center;verticalAlign=top;childLayout=stackLayout;horizontal=1;startSize=26;horizontalStack=0;resizeParent=1;resizeParentMax=0;resizeLast=0;collapsible=1;marginBottom=0;whiteSpace=wrap;html=1;" parent="1" vertex="1">
          <mxGeometry x="190" y="100" width="700" height="230" as="geometry" />
        </mxCell>
        <mxCell id="hfysusJ_UThqVZN3HZuq-2" value="+ field: Nombre&lt;br style=&quot;border-color: var(--border-color);&quot;&gt;+field: Empleado&lt;br style=&quot;border-color: var(--border-color);&quot;&gt;+ field: Capital&lt;br style=&quot;border-color: var(--border-color);&quot;&gt;+field: Ubicacion" style="text;strokeColor=none;fillColor=none;align=left;verticalAlign=top;spacingLeft=4;spacingRight=4;overflow=hidden;rotatable=0;points=[[0,0.5],[1,0.5]];portConstraint=eastwest;whiteSpace=wrap;html=1;" parent="hfysusJ_UThqVZN3HZuq-1" vertex="1">
          <mxGeometry y="26" width="700" height="74" as="geometry" />
        </mxCell>
        <mxCell id="hfysusJ_UThqVZN3HZuq-3" value="" style="line;strokeWidth=1;fillColor=none;align=left;verticalAlign=middle;spacingTop=-1;spacingLeft=3;spacingRight=3;rotatable=0;labelPosition=right;points=[];portConstraint=eastwest;strokeColor=inherit;" parent="hfysusJ_UThqVZN3HZuq-1" vertex="1">
          <mxGeometry y="100" width="700" height="8" as="geometry" />
        </mxCell>
        <mxCell id="hfysusJ_UThqVZN3HZuq-4" value="&lt;div&gt;&lt;br&gt;&lt;/div&gt;+method(Contratar): Empleado&lt;span style=&quot;background-color: initial;&quot;&gt;&lt;br&gt;&lt;/span&gt;+method( Despedir): Empleado&lt;br&gt;&lt;div&gt;&amp;nbsp;+method(Obtener empleado): obtenerdepartamentopornombre&lt;/div&gt;&lt;div&gt;+method(): obtenerlistadedepartamentos&lt;/div&gt;+method(calcularbalancetotal): calcularbalancetotal&lt;br&gt;&lt;div&gt;+method(obtenerlistadeempleadosdetodoslosdepartamentos): obtenerlistadeempleadosdetodoslosdepartamentos&lt;/div&gt;&lt;div&gt;&lt;br&gt;&lt;/div&gt;" style="text;strokeColor=none;fillColor=none;align=left;verticalAlign=top;spacingLeft=4;spacingRight=4;overflow=hidden;rotatable=0;points=[[0,0.5],[1,0.5]];portConstraint=eastwest;whiteSpace=wrap;html=1;" parent="hfysusJ_UThqVZN3HZuq-1" vertex="1">
          <mxGeometry y="108" width="700" height="122" as="geometry" />
        </mxCell>
        <mxCell id="hfysusJ_UThqVZN3HZuq-10" style="edgeStyle=orthogonalEdgeStyle;rounded=0;orthogonalLoop=1;jettySize=auto;html=1;" parent="1" source="Sl7VbawM-Kpv8AohSlt3-16" target="Sl7VbawM-Kpv8AohSlt3-25" edge="1">
          <mxGeometry relative="1" as="geometry" />
        </mxCell>
        <mxCell id="Sl7VbawM-Kpv8AohSlt3-16" value="EMPLEADO&lt;br&gt;" style="swimlane;fontStyle=1;align=center;verticalAlign=top;childLayout=stackLayout;horizontal=1;startSize=40;horizontalStack=0;resizeParent=1;resizeParentMax=0;resizeLast=0;collapsible=1;marginBottom=0;whiteSpace=wrap;html=1;" parent="1" vertex="1">
          <mxGeometry x="850" y="640" width="640" height="220" as="geometry" />
        </mxCell>
        <mxCell id="Sl7VbawM-Kpv8AohSlt3-17" value="+ field: nombre&lt;br&gt;+ field: direccion&lt;br&gt;+ field: salario&lt;br&gt;+ field: cargo&lt;br&gt;&lt;br&gt;" style="text;strokeColor=none;fillColor=none;align=left;verticalAlign=top;spacingLeft=4;spacingRight=4;overflow=hidden;rotatable=0;points=[[0,0.5],[1,0.5]];portConstraint=eastwest;whiteSpace=wrap;html=1;" parent="Sl7VbawM-Kpv8AohSlt3-16" vertex="1">
          <mxGeometry y="40" width="640" height="70" as="geometry" />
        </mxCell>
        <mxCell id="Sl7VbawM-Kpv8AohSlt3-18" value="" style="line;strokeWidth=1;fillColor=none;align=left;verticalAlign=middle;spacingTop=-1;spacingLeft=3;spacingRight=3;rotatable=0;labelPosition=right;points=[];portConstraint=eastwest;strokeColor=inherit;" parent="Sl7VbawM-Kpv8AohSlt3-16" vertex="1">
          <mxGeometry y="110" width="640" height="8" as="geometry" />
        </mxCell>
        <mxCell id="Sl7VbawM-Kpv8AohSlt3-19" value="+ method(Calcularsalarioanual): Calcularsalarioanual&lt;br&gt;+method(obtenernombrecompleto):&amp;nbsp;obtenernombrecompleto&lt;br&gt;+method(obtenerinformaciónpersonal):&amp;nbsp;obtenerinformaciónpersonal&lt;br&gt;+method(obtenerinformacióndeldepartamentoalquepertenece):&amp;nbsp;obtenerinformacióndeldepartamentoalquepertenece" style="text;strokeColor=none;fillColor=none;align=left;verticalAlign=top;spacingLeft=4;spacingRight=4;overflow=hidden;rotatable=0;points=[[0,0.5],[1,0.5]];portConstraint=eastwest;whiteSpace=wrap;html=1;" parent="Sl7VbawM-Kpv8AohSlt3-16" vertex="1">
          <mxGeometry y="118" width="640" height="102" as="geometry" />
        </mxCell>
        <mxCell id="Sl7VbawM-Kpv8AohSlt3-20" value="DEPARTAMENTO&lt;br&gt;" style="swimlane;fontStyle=1;align=center;verticalAlign=top;childLayout=stackLayout;horizontal=1;startSize=26;horizontalStack=0;resizeParent=1;resizeParentMax=0;resizeLast=0;collapsible=1;marginBottom=0;whiteSpace=wrap;html=1;" parent="1" vertex="1">
          <mxGeometry x="970" y="-190" width="520" height="228" as="geometry" />
        </mxCell>
        <mxCell id="Sl7VbawM-Kpv8AohSlt3-21" value="+ field: nombre&lt;br&gt;+field: descripcion&lt;br&gt;+field: lista de empleados" style="text;strokeColor=none;fillColor=none;align=left;verticalAlign=top;spacingLeft=4;spacingRight=4;overflow=hidden;rotatable=0;points=[[0,0.5],[1,0.5]];portConstraint=eastwest;whiteSpace=wrap;html=1;" parent="Sl7VbawM-Kpv8AohSlt3-20" vertex="1">
          <mxGeometry y="26" width="520" height="84" as="geometry" />
        </mxCell>
        <mxCell id="Sl7VbawM-Kpv8AohSlt3-22" value="" style="line;strokeWidth=1;fillColor=none;align=left;verticalAlign=middle;spacingTop=-1;spacingLeft=3;spacingRight=3;rotatable=0;labelPosition=right;points=[];portConstraint=eastwest;strokeColor=inherit;" parent="Sl7VbawM-Kpv8AohSlt3-20" vertex="1">
          <mxGeometry y="110" width="520" height="8" as="geometry" />
        </mxCell>
        <mxCell id="Sl7VbawM-Kpv8AohSlt3-23" value="+ method(agregarempleado): agregarempleado&lt;br&gt;+method(eliminarempleado): eliminarempleado&lt;br&gt;+method(obtenerempleadopornombre): obtenerempleadopornombre&lt;br&gt;+method(obtenerlistadeempleados): obtenerlistadeempleados&lt;br&gt;+method(calcularsalariototal): calcularsalariototal&lt;br&gt;+method(obtenerinformacióndeldepartamento): obtenerinformacióndeldepartamento" style="text;strokeColor=none;fillColor=none;align=left;verticalAlign=top;spacingLeft=4;spacingRight=4;overflow=hidden;rotatable=0;points=[[0,0.5],[1,0.5]];portConstraint=eastwest;whiteSpace=wrap;html=1;" parent="Sl7VbawM-Kpv8AohSlt3-20" vertex="1">
          <mxGeometry y="118" width="520" height="110" as="geometry" />
        </mxCell>
        <mxCell id="Sl7VbawM-Kpv8AohSlt3-24" value="Salario" style="swimlane;fontStyle=1;align=center;verticalAlign=top;childLayout=stackLayout;horizontal=1;startSize=26;horizontalStack=0;resizeParent=1;resizeParentMax=0;resizeLast=0;collapsible=1;marginBottom=0;whiteSpace=wrap;html=1;" parent="1" vertex="1">
          <mxGeometry x="1390" y="410" width="390" height="190" as="geometry" />
        </mxCell>
        <mxCell id="Sl7VbawM-Kpv8AohSlt3-25" value="&amp;nbsp;+ field: numero de cuenta&lt;br&gt;+ field: saldo&lt;br&gt;+ field: tipo de cuenta&lt;br&gt;+ field: lista de transacciones" style="text;strokeColor=none;fillColor=none;align=left;verticalAlign=top;spacingLeft=4;spacingRight=4;overflow=hidden;rotatable=0;points=[[0,0.5],[1,0.5]];portConstraint=eastwest;whiteSpace=wrap;html=1;" parent="Sl7VbawM-Kpv8AohSlt3-24" vertex="1">
          <mxGeometry y="26" width="390" height="64" as="geometry" />
        </mxCell>
        <mxCell id="Sl7VbawM-Kpv8AohSlt3-26" value="" style="line;strokeWidth=1;fillColor=none;align=left;verticalAlign=middle;spacingTop=-1;spacingLeft=3;spacingRight=3;rotatable=0;labelPosition=right;points=[];portConstraint=eastwest;strokeColor=inherit;" parent="Sl7VbawM-Kpv8AohSlt3-24" vertex="1">
          <mxGeometry y="90" width="390" height="8" as="geometry" />
        </mxCell>
        <mxCell id="Sl7VbawM-Kpv8AohSlt3-27" value="+method(agregartransacción): agregartransacción&lt;br&gt;+method(eliminartransacción); eliminartransacción&lt;br&gt;+method(obtenertransacciónporfecha): obtenertransacción por fecha&lt;br&gt;+method(obtenerlistadetransacciones): obtenerlistadetransacciones&lt;br&gt;+method(calcularsaldoactual): calcularsaldoactual" style="text;strokeColor=none;fillColor=none;align=left;verticalAlign=top;spacingLeft=4;spacingRight=4;overflow=hidden;rotatable=0;points=[[0,0.5],[1,0.5]];portConstraint=eastwest;whiteSpace=wrap;html=1;" parent="Sl7VbawM-Kpv8AohSlt3-24" vertex="1">
          <mxGeometry y="98" width="390" height="92" as="geometry" />
        </mxCell>
        <mxCell id="hfysusJ_UThqVZN3HZuq-11" style="edgeStyle=orthogonalEdgeStyle;rounded=0;orthogonalLoop=1;jettySize=auto;html=1;entryX=0.232;entryY=-0.005;entryDx=0;entryDy=0;entryPerimeter=0;" parent="1" source="hfysusJ_UThqVZN3HZuq-4" target="Sl7VbawM-Kpv8AohSlt3-16" edge="1">
          <mxGeometry relative="1" as="geometry" />
        </mxCell>
      </root>
    </mxGraphModel>
  </diagram>
</mxfile>
